<?xml version="1.0" encoding="utf-8"?>
<!-- Generator: Adobe Illustrator 21.1.0, SVG Export Plug-In . SVG Version: 6.00 Build 0)  -->
<svg preserveAspectRatio="none" version="1.1" id="Layer_1" xmlns="http://www.w3.org/2000/svg" xmlns:xlink="http://www.w3.org/1999/xlink" x="0px" y="0px"
	 viewBox="0 0 1600 1444" style="enable-background:new 0 0 1600 1444;">
<style type="text/css">
	.st0{fill:#F1FAFF;}
</style>
<path class="st0" d="M-181.1,104.9c0,0,227.2-63.9,515.7-60.9c288.5,3,648.6,37.9,875.4,22c361.8-25.4,467.5-64.3,467.5-64.3
	l34.2,1084.2c0,0-423.6,78.9-696.4,81.1c-318.9,2.6-543.9-24.1-816.5-15.5c-151,4.8-345.3,52.2-345.3,52.2L-181.1,104.9z"/>
<path class="st0" d="M-69,101c0,0,205.5-50.9,464-40c258.5,10.9,514.7,47.9,718.5,40c325-12.6,486.5-40,486.5-40v1329
	c0,0-381.9,58.7-626.5,53c-286-6.7-486.8-37-731.5-37c-135.5,0-311,37-311,37V101z"/>
</svg>
