<svg width="109" height="102" viewBox="0 0 109 102" fill="none" xmlns="http://www.w3.org/2000/svg">
<path d="M41.4316 90.9201C13.5563 81.6239 5.22802 65.1331 9.23397 35.2029C11.9593 14.8405 22.599 3.7043 57.3933 8.41784C97.6028 13.865 99.9627 45.9024 99.2961 64.676C98.6295 83.4495 69.307 100.216 41.4316 90.9201Z" fill="#FEEAE3"/>
<path d="M49.6875 27.2271L46.0938 34.4146V40.8833L48.9688 40.1646L51.8438 40.8833L54.7188 40.1646L57.5938 40.8833V34.4146L54.7188 27.2271" fill="#FFCDBB"/>
<path d="M49.6875 27.2271L46.0938 34.4146V40.8833L48.9688 40.1646L51.8438 40.8833L54.7188 40.1646L57.5938 40.8833V34.4146L54.7188 27.2271" stroke="#20254A" stroke-width="2" stroke-miterlimit="10" stroke-linecap="round" stroke-linejoin="round"/>
<path d="M31.791 34.3428L39.6973 27.1553H64.1348L72.041 34.3428" stroke="#20254A" stroke-width="2" stroke-miterlimit="10" stroke-linecap="round" stroke-linejoin="round"/>
<path d="M52.5625 67.4053H32.4375C32.0062 67.4053 31.7188 67.1178 31.7188 66.6865V35.0615C31.7188 34.6303 32.0062 34.3428 32.4375 34.3428H71.25C71.6813 34.3428 71.9688 34.6303 71.9688 35.0615V47.999" stroke="#20254A" stroke-width="2" stroke-miterlimit="10" stroke-linecap="square" stroke-linejoin="round"/>
<path d="M66.2188 71.7178C71.7761 71.7178 76.2812 67.2126 76.2812 61.6553C76.2812 56.0979 71.7761 51.5928 66.2188 51.5928C60.6614 51.5928 56.1562 56.0979 56.1562 61.6553C56.1562 67.2126 60.6614 71.7178 66.2188 71.7178Z" fill="#FFCDBB" stroke="#20254A" stroke-width="2" stroke-miterlimit="10" stroke-linecap="round" stroke-linejoin="round"/>
<path d="M61.9062 61.6553L65.5 65.249L70.5312 58.0615" stroke="#20254A" stroke-width="2" stroke-miterlimit="10" stroke-linecap="round" stroke-linejoin="round"/>
</svg>
