<svg width="59" height="60" viewBox="0 0 59 60" fill="none" xmlns="http://www.w3.org/2000/svg">
<path d="M21.8675 35.415C23.256 35.4105 38.9866 35.3197 38.9866 35.3197C39.7019 35.3173 40.1002 35.7578 40.5403 36.2823C41.0431 36.9119 41.6304 37.4569 42.2601 37.9177C43.6243 38.9021 45.2425 39.4648 46.9258 39.3752C48.3777 39.3073 49.7683 38.6716 50.7395 37.6166C51.8162 36.4559 52.1579 34.898 51.7 33.3847C51.3461 32.2288 50.7178 31.3472 50.7429 30.1059C50.7677 28.9487 51.1713 27.7903 51.5956 26.6949C52.211 25.073 51.964 23.3907 50.7901 22.0902C49.8258 21.0414 48.4393 20.4148 46.9879 20.3564C45.4523 20.2983 43.9149 20.7872 42.6077 21.633C41.9541 22.0769 41.3423 22.6049 40.8354 23.1956C40.2864 23.8286 39.9477 24.4608 39.022 24.4638L21.2797 24.5413" fill="white"/>
<path d="M21.8675 35.415C23.256 35.4105 38.9866 35.3197 38.9866 35.3197C39.7019 35.3173 40.1002 35.7578 40.5403 36.2823C41.0431 36.9119 41.6304 37.4569 42.2601 37.9177C43.6243 38.9021 45.2425 39.4648 46.9258 39.3752C48.3777 39.3073 49.7683 38.6716 50.7395 37.6166C51.8162 36.4559 52.1579 34.898 51.7 33.3847C51.3461 32.2288 50.7178 31.3472 50.7429 30.1059C50.7677 28.9487 51.1713 27.7903 51.5956 26.6949C52.211 25.073 51.964 23.3907 50.7901 22.0902C49.8258 21.0414 48.4393 20.4148 46.9879 20.3564C45.4523 20.2983 43.9149 20.7872 42.6077 21.633C41.9541 22.0769 41.3423 22.6049 40.8354 23.1956C40.2864 23.8286 39.9477 24.4608 39.022 24.4638L21.2797 24.5413" stroke="#58BEF5" stroke-width="2" stroke-miterlimit="10" stroke-linecap="round" stroke-linejoin="round"/>
<path d="M22.3813 24.5392L19.9619 24.5681C19.0362 24.5711 18.7017 23.9411 18.1568 23.3117C17.6538 22.7243 17.0454 22.2004 16.3946 21.7607C15.1141 20.9023 13.5588 20.4446 12.0229 20.5127C10.571 20.5805 9.18048 21.2162 8.2093 22.2713C7.00595 23.5585 6.76898 25.2633 7.37379 26.8812C7.79099 27.9738 8.18707 29.0876 8.20419 30.2866C8.20008 31.5489 7.56606 32.4346 7.22574 33.5717C6.75797 35.088 7.1106 36.6226 8.15866 37.7973C9.12297 38.846 10.5094 39.4726 11.9608 39.531C13.6436 39.6097 15.2865 39.0152 16.6361 38.0431C17.2687 37.5782 17.8807 37.0082 18.3665 36.3965C18.81 35.8691 19.2112 35.426 19.9265 35.4237C19.9265 35.4237 21.0205 35.4201 22.4931 35.4153" fill="white"/>
<path d="M22.3813 24.5392L19.9619 24.5681C19.0362 24.5711 18.7017 23.9411 18.1568 23.3117C17.6538 22.7243 17.0454 22.2004 16.3946 21.7607C15.1141 20.9023 13.5588 20.4446 12.0229 20.5127C10.571 20.5805 9.18048 21.2162 8.2093 22.2713C7.00595 23.5585 6.76898 25.2633 7.37379 26.8812C7.79099 27.9738 8.18707 29.0876 8.20419 30.2866C8.20008 31.5489 7.56606 32.4346 7.22574 33.5717C6.75797 35.088 7.1106 36.6226 8.15866 37.7973C9.12297 38.846 10.5094 39.4726 11.9608 39.531C13.6436 39.6097 15.2865 39.0152 16.6361 38.0431C17.2687 37.5782 17.8807 37.0082 18.3665 36.3965C18.81 35.8691 19.2112 35.426 19.9265 35.4237C19.9265 35.4237 21.0205 35.4201 22.4931 35.4153" stroke="#58BEF5" stroke-width="2" stroke-miterlimit="10" stroke-linecap="round" stroke-linejoin="round"/>
<path d="M39.9978 35.6939C39.9978 35.6939 38.7612 34.4152 39.1855 33.2782L39.9978 35.6939Z" fill="white"/>
<path d="M39.9978 35.6939C39.9978 35.6939 38.7612 34.4152 39.1855 33.2782" stroke="#58BEF5" stroke-width="2" stroke-miterlimit="10" stroke-linecap="round" stroke-linejoin="round"/>
<path d="M19.332 24.444C19.332 24.444 20.1248 26.5457 19.3393 28.6737L19.332 24.444Z" fill="white"/>
<path d="M19.332 24.444C19.332 24.444 20.1248 26.5457 19.3393 28.6737" stroke="#58BEF5" stroke-width="2" stroke-miterlimit="10" stroke-linecap="round" stroke-linejoin="round"/>
</svg>
