<svg width="112" height="102" viewBox="0 0 112 102" fill="none" xmlns="http://www.w3.org/2000/svg">
<path d="M44.3051 90.62C16.4297 81.3238 5.92374 60.5514 9.92969 30.6212C12.6551 10.2587 38.7111 -0.93506 71 12.8594C109.624 29.3604 108.634 52.881 99.9296 71.621C91.2256 90.3611 72.1805 99.9161 44.3051 90.62Z" fill="#FEEAE3"/>
<path d="M61.0052 35.3583C49.9853 32.723 46.2828 26.8582 46.2828 26.8582L40.7502 36.4409C40.7502 36.4409 44.4527 42.3057 55.4726 44.9411L58.2389 40.1496L61.0052 35.3583Z" fill="#FFCDBB"/>
<path d="M46.2828 26.8582C46.2828 26.8582 49.9853 32.723 61.0052 35.3583M46.2828 26.8582L35.2173 46.0242C35.2173 46.0242 38.9198 51.889 49.9397 54.5243C60.9595 57.1596 64.6622 63.0242 64.6622 63.0242L75.7277 43.8582C75.7277 43.8582 72.025 37.9936 61.0052 35.3583M46.2828 26.8582L40.7502 36.4409C40.7502 36.4409 44.4527 42.3057 55.4726 44.9411M61.0052 35.3583L55.4726 44.9411M61.0052 35.3583L58.2389 40.1496M55.4726 44.9411C66.4924 47.5764 70.1951 53.4409 70.1951 53.4409M55.4726 44.9411L58.2389 40.1496M37.9837 41.2326C37.9837 41.2326 41.6863 47.0974 52.7061 49.7327C63.7259 52.3681 67.4286 58.2326 67.4286 58.2326M58.2389 40.1496C69.2587 42.7849 72.9614 48.6495 72.9614 48.6495" stroke="#20254A" stroke-width="2" stroke-linejoin="round"/>
<path d="M70.4453 53.0083L56.4453 77.257" stroke="#20254A" stroke-width="2" stroke-linecap="round"/>
</svg>
