<svg width="35" height="50" viewBox="0 0 35 50" fill="none" xmlns="http://www.w3.org/2000/svg">
<path d="M14.6012 47.6816H2.97903C2.79798 47.6816 2.62435 47.6084 2.49633 47.4782C2.36831 47.348 2.29639 47.1714 2.29639 46.9873V43.1821C2.29639 42.998 2.36831 42.8214 2.49633 42.6912C2.62435 42.561 2.79798 42.4879 2.97903 42.4879H14.6789C17.5052 42.5168 20.2353 41.4451 22.3095 39.4924C24.3837 37.5398 25.6449 34.8542 25.8345 31.9862C25.9225 30.2104 25.5875 28.4393 24.8578 26.8236C24.1281 25.2078 23.0254 23.7953 21.6436 22.7061L25.2815 19.0063C27.1443 20.5967 28.6245 22.5996 29.6085 24.8617C30.5926 27.1237 31.0544 29.5849 30.9586 32.0565C30.6302 40.8445 23.2508 47.6816 14.6012 47.6816Z" fill="#20254A" stroke="#20254A" stroke-width="3" stroke-linejoin="round"/>
<path d="M31.1467 13.0422L22.1587 3.90137L4.67146 21.6859L13.6595 30.8267L31.1467 13.0422Z" stroke="#20254A" stroke-width="3" stroke-linejoin="round"/>
<path d="M32.7035 5.93636L29.1473 2.31982L24.8702 6.66961L28.4263 10.2861L32.7035 5.93636Z" fill="#20254A" stroke="#20254A" stroke-width="3" stroke-linejoin="round"/>
</svg>
