<svg width="47" height="42" viewBox="0 0 47 42" fill="none" xmlns="http://www.w3.org/2000/svg">
<path d="M45.1507 13.5599C45.1122 12.3504 44.909 11.1518 44.5466 9.99725C43.7254 7.50369 42.0934 5.35655 39.9104 3.89774C37.7275 2.43894 35.1191 1.75236 32.5007 1.94735C30.6863 2.11155 28.933 2.68636 27.3737 3.62824C25.8143 4.57012 24.4897 5.85439 23.5002 7.38381C22.5127 5.8525 21.1886 4.56679 19.6288 3.62467C18.0691 2.68254 16.3148 2.10887 14.4996 1.94735C11.8914 1.75348 9.29279 2.4334 7.11385 3.87984C4.93491 5.32629 3.29965 7.45693 2.46607 9.93561C2.09394 11.1094 1.88647 12.3291 1.84959 13.5599C1.57834 22.8919 10.7885 32.0513 21.4781 39.5094C22.0708 39.9242 22.7767 40.1467 23.5002 40.1467C24.2236 40.1467 24.9295 39.9242 25.5222 39.5094C36.2119 32.0513 45.422 22.8919 45.1507 13.5599Z" stroke="#20254A" stroke-width="3" stroke-linejoin="round"/>
<path d="M34.9053 16.7034C33.8534 18.8293 32.2281 20.6189 30.2129 21.8701C28.1976 23.1213 25.8727 23.7844 23.5005 23.7844C21.1283 23.7844 18.8033 23.1213 16.7881 21.8701C14.7728 20.6189 13.1476 18.8293 12.0957 16.7034" stroke="#20254A" stroke-width="3" stroke-linecap="round" stroke-linejoin="round"/>
</svg>
