<svg width="55" height="54" viewBox="0 0 55 54" fill="none" xmlns="http://www.w3.org/2000/svg">
<path d="M47.168 38.2796C47.8473 41.4048 48.7224 44.4842 49.788 47.4996" stroke="#20254A" stroke-width="3" stroke-linecap="round" stroke-linejoin="round"/>
<path d="M24.6184 47.4996C23.8784 38.2396 20.7984 35.7496 12.2684 35.7496C6.05836 35.7496 4.31836 30.9096 4.31836 26.7496V23.8296C4.33677 23.4879 4.47881 23.1646 4.71799 22.9198C4.95717 22.6751 5.27718 22.5258 5.61836 22.4996L12.0284 21.8196C13.5365 21.6457 14.9877 21.1416 16.2788 20.343C17.57 19.5445 18.6692 18.4712 19.4984 17.1996C20.4984 15.6696 22.2984 11.4996 29.6184 11.4996H35.0484C44.2584 11.4996 50.1084 19.7696 51.1484 30.9096C51.5284 35.1596 49.7684 37.3096 47.1484 38.3296C45.2725 38.9954 43.2876 39.3008 41.2984 39.2296C31.4984 39.2296 32.5484 22.4996 32.5484 22.4996" stroke="#20254A" stroke-width="3" stroke-linecap="round" stroke-linejoin="round"/>
<path d="M6.99805 1.99957H5.99805V10.9996H6.99805V1.99957Z" stroke="#20254A" stroke-width="3" stroke-linecap="round" stroke-linejoin="round"/>
<path d="M1.99805 5.99957V6.99957L10.998 6.99957V5.99957L1.99805 5.99957Z" stroke="#20254A" stroke-width="3" stroke-linecap="round" stroke-linejoin="round"/>
<path d="M23.8789 20.9697V20.8497" stroke="#20254A" stroke-width="3" stroke-linecap="round" stroke-linejoin="round"/>
<path d="M52.5284 47.4996H21.8184V51.9996H52.5284V47.4996Z" fill="#20254A" stroke="#20254A" stroke-width="3" stroke-linecap="round" stroke-linejoin="round"/>
</svg>
