<svg width="47" height="54" viewBox="0 0 47 54" fill="none" xmlns="http://www.w3.org/2000/svg">
<path d="M11.1881 32.4289C11.1881 32.4289 14.4235 31.0744 15.5189 30.6622C20.4611 28.8198 22.5586 24.2938 23.2804 19.7257L23.5946 17.7403C23.7981 16.7061 24.3976 15.79 25.2676 15.1838C26.1375 14.5776 27.2104 14.3283 28.2617 14.4881C29.3129 14.6479 30.261 15.2045 30.9075 16.0412C31.5539 16.8779 31.8486 17.9299 31.7297 18.977L31.0504 25.4043C31.0504 25.4043 33.0799 25.0089 38.8034 24.176C39.5224 24.0553 40.2592 24.0889 40.964 24.2746C41.6687 24.4603 42.325 24.7937 42.8886 25.2523C43.4521 25.7108 43.9097 26.2839 44.2304 26.9328C44.5511 27.5816 44.7275 28.2911 44.7476 29.0133C44.7468 29.7977 44.5578 30.5706 44.196 31.2684C43.8343 31.9661 43.3102 32.5686 42.6672 33.0262C43.4078 33.5064 44.0065 34.1728 44.4021 34.9572C44.7978 35.7416 44.9762 36.616 44.9192 37.4911C44.8623 38.3662 44.5719 39.2106 44.0778 39.9382C43.5836 40.6657 42.9035 41.2504 42.1067 41.6324C42.5145 42.2904 42.7378 43.0442 42.7535 43.8162C42.7693 44.5882 42.5768 45.3504 42.1961 46.0242C41.8154 46.698 41.2602 47.2589 40.5877 47.6493C39.9152 48.0396 39.1497 48.2452 38.3703 48.2447C30.8975 48.2447 26.7875 44.1646 16.4275 48.0512" stroke="#20254A" stroke-width="3" stroke-linejoin="round"/>
<path d="M9.8125 15.8135L14.7717 18.1943" stroke="#20254A" stroke-width="3" stroke-linecap="round" stroke-linejoin="round"/>
<path d="M19.3743 3.00977L21.9218 7.84707" stroke="#20254A" stroke-width="3" stroke-linecap="round" stroke-linejoin="round"/>
<path d="M45.4524 13.3906L40.8754 16.4192" stroke="#20254A" stroke-width="3" stroke-linecap="round" stroke-linejoin="round"/>
<path d="M34.2094 2L32.3582 7.14016" stroke="#20254A" stroke-width="3" stroke-linecap="round" stroke-linejoin="round"/>
<path d="M10.5597 30.561L2 33.3877L8.43677 52.4761L16.9965 49.641L10.5597 30.561ZM10.9164 49.4055C10.1468 49.4071 9.39402 49.1826 8.75332 48.7602C8.11262 48.3379 7.61281 47.7367 7.31714 47.0328C7.02147 46.3289 6.94324 45.5539 7.09234 44.8059C7.24145 44.058 7.61119 43.3707 8.15477 42.831C8.69835 42.2913 9.39133 41.9235 10.146 41.7741C10.9007 41.6248 11.6831 41.7006 12.3943 41.9919C13.1054 42.2833 13.7133 42.7772 14.1411 43.411C14.5688 44.0448 14.7971 44.7901 14.7971 45.5525C14.7971 46.5729 14.3885 47.5516 13.661 48.274C12.9335 48.9963 11.9464 49.4032 10.9164 49.4055Z" fill="#20254A" stroke="#20254A" stroke-width="3" stroke-linejoin="round"/>
</svg>
