<svg width="54" height="45" viewBox="0 0 54 45" fill="none" xmlns="http://www.w3.org/2000/svg">
<path d="M12.4601 24.3087C15.17 22.6958 15.8189 18.7875 13.9094 15.5793C12 12.3711 8.25526 11.0778 5.54537 12.6907C2.83548 14.3035 2.18658 18.2118 4.09602 21.42C6.00546 24.6282 9.75017 25.9215 12.4601 24.3087Z" fill="#20254A"/>
<path d="M22.6315 14.558C25.6105 13.2652 26.8473 9.50234 25.394 6.1535C23.9407 2.80466 20.3475 1.13794 17.3686 2.43078C14.3896 3.72361 13.1528 7.48644 14.6061 10.8353C16.0594 14.1841 19.6525 15.8508 22.6315 14.558Z" fill="#20254A"/>
<path d="M49.9036 21.4274C51.813 18.2192 51.1641 14.3109 48.4542 12.6981C45.7443 11.0852 41.9996 12.3785 40.0902 15.5867C38.1807 18.7949 38.8296 22.7032 41.5395 24.316C44.2494 25.9289 47.9941 24.6356 49.9036 21.4274Z" fill="#20254A"/>
<path d="M39.3959 10.8407C40.8493 7.49186 39.6125 3.72904 36.6335 2.4362C33.6545 1.14336 30.0614 2.81008 28.608 6.15892C27.1547 9.50776 28.3915 13.2706 31.3705 14.5634C34.3495 15.8563 37.9426 14.1895 39.3959 10.8407Z" fill="#20254A"/>
<path d="M12.3486 35.3895C12.3752 36.1775 12.5098 36.9581 12.7486 37.7095C13.2805 39.3439 14.3447 40.7531 15.7712 41.7119C17.1977 42.6708 18.9043 43.1241 20.6186 42.9995C21.8047 42.8917 22.9507 42.5151 23.9696 41.8982C24.9884 41.2814 25.8533 40.4405 26.4986 39.4395C27.1439 40.4405 28.0088 41.2814 29.0277 41.8982C30.0465 42.5151 31.1925 42.8917 32.3786 42.9995C34.0904 43.1253 35.7951 42.6749 37.2212 41.7199C38.6474 40.7649 39.7131 39.3602 40.2486 37.7295C40.4874 36.9781 40.622 36.1975 40.6486 35.4095C40.6739 33.7316 40.3076 32.071 39.5786 30.5595C34.5786 19.6095 18.4286 19.6095 13.4186 30.5595C12.6927 32.0649 12.3264 33.7183 12.3486 35.3895V35.3895Z" stroke="#20254A" stroke-width="3" stroke-linejoin="round"/>
</svg>
