<svg width="44" height="40" viewBox="0 0 44 40" fill="none" xmlns="http://www.w3.org/2000/svg">
<path d="M10.7707 2.13574V10.6988H2L10.7707 2.13574Z" fill="#20254A" stroke="#20254A" stroke-width="3" stroke-linejoin="round"/>
<path d="M25.6211 28.8016V35.6233H2V10.6988L10.7707 2.13574H25.6211V8.50315" stroke="#20254A" stroke-width="3" stroke-linejoin="round"/>
<path d="M25.66 28.8016C31.399 28.8016 36.0514 24.2594 36.0514 18.6562C36.0514 13.053 31.399 8.51074 25.66 8.51074C19.921 8.51074 15.2686 13.053 15.2686 18.6562C15.2686 24.2594 19.921 28.8016 25.66 28.8016Z" stroke="#20254A" stroke-width="3" stroke-linejoin="round"/>
<path d="M31.7164 27.1585C31.7164 27.1585 38.2537 36.7437 38.6958 37.2585C38.9815 37.5793 39.3829 37.78 39.8165 37.8189C40.25 37.8578 40.6823 37.732 41.0231 37.4675C41.364 37.203 41.5872 36.8204 41.6462 36.3992C41.7053 35.9781 41.5956 35.5509 41.3401 35.2067C40.9136 34.6919 32.8099 26.3257 32.8099 26.3257L31.7164 27.1585Z" fill="#20254A" stroke="#20254A" stroke-width="3" stroke-linejoin="round"/>
</svg>
