<svg width="110" height="105" viewBox="0 0 110 105" fill="none" xmlns="http://www.w3.org/2000/svg">
<path d="M42.4308 93.9247C14.5554 84.6285 -1.05434 66.2157 10.2331 38.2075C17.9998 18.9355 32.1816 1.56584 57.4998 8.93677C97 20.4365 108.296 44.1776 99.9994 66.9356C91.703 89.6935 70.3061 103.221 42.4308 93.9247Z" fill="#FEEAE3"/>
<path d="M67.1273 54.3776C69.0005 54.413 70.7676 55.2965 72.6053 55.2612C75.8214 55.2258 77.3058 52.2925 77.0938 49.6772C77.0231 48.7583 76.705 47.8394 76.0335 47.2032C74.9732 46.143 73.3829 45.6835 72.4286 44.4819C72.0399 43.9871 71.7218 43.4217 71.4037 42.8562C70.8736 41.902 70.3435 40.9831 69.2479 40.4176C68.541 40.0642 67.7635 39.9228 67.0213 39.9582C66.2438 39.9228 65.4663 40.0288 64.7594 40.3469C63.6638 40.8417 63.0984 41.7606 62.5329 42.7148C62.2148 43.2449 61.8968 43.8104 61.4727 44.3052C60.4831 45.4715 58.8927 45.8602 57.7971 46.9205C57.1256 47.5567 56.7722 48.4755 56.6662 49.3944C56.3834 52.0097 57.7971 54.9784 60.9779 55.1198C62.851 55.1905 64.6181 54.3776 66.4912 54.3776C66.5972 54.3776 66.7032 54.3776 66.8093 54.3776C66.9153 54.3776 67.0213 54.3776 67.1273 54.3776Z" fill="#FFCDBB" stroke="#20254A" stroke-width="2"/>
<path d="M75.9645 43.6689C74.9043 43.3155 74.1621 42.1139 74.3742 41.0183C74.4802 40.4882 74.7276 40.0287 74.975 39.5693C75.187 39.1805 75.4344 38.7564 75.6465 38.3676C75.8585 38.0142 76.0352 37.6608 76.2473 37.3074C76.4947 36.8479 76.7774 36.3532 77.2722 36.1764C77.3782 36.1411 77.4842 36.1058 77.5903 36.1411C77.6963 36.1764 77.767 36.2118 77.873 36.2825C78.9333 37.0953 79.6754 38.3323 79.8521 39.6753C79.9935 40.7709 79.7461 41.9725 79.0039 42.8207C78.2618 43.6689 77.0248 44.093 75.9645 43.6689Z" fill="#FFCDBB" stroke="#20254A" stroke-width="2"/>
<path d="M71.2614 37.8728C69.8831 37.9081 68.5754 36.8125 68.3634 35.4342C68.2574 34.7981 68.3634 34.1266 68.5048 33.4904C68.6108 32.9249 68.7168 32.3948 68.8228 31.8293C68.9289 31.3346 68.9995 30.8398 69.1056 30.345C69.2116 29.7088 69.353 29.0373 69.8477 28.6132C69.9538 28.5425 70.0598 28.4365 70.2012 28.4365C70.3425 28.4365 70.4486 28.4719 70.5546 28.5072C72.1096 29.0373 73.4526 30.1683 74.1948 31.6526C74.7956 32.8896 74.9723 34.374 74.4422 35.6463C73.9121 36.9539 72.6397 37.9081 71.2614 37.8728Z" fill="#FFCDBB" stroke="#20254A" stroke-width="2"/>
<path d="M58.3637 43.669C59.4593 43.351 60.2015 42.1847 60.0248 41.0891C59.9541 40.559 59.7067 40.0642 59.4593 39.6047C59.2472 39.1806 59.0352 38.7919 58.8231 38.3678C58.6464 38.0143 58.4344 37.6609 58.2577 37.2722C58.0103 36.8127 57.7275 36.3179 57.2681 36.1059C57.1621 36.0705 57.056 36.0352 56.95 36.0705C56.844 36.1059 56.7733 36.1412 56.6673 36.2119C55.5717 36.9894 54.7942 38.2264 54.5821 39.5694C54.4054 40.665 54.6175 41.8666 55.3596 42.7502C56.0665 43.5984 57.3034 44.0225 58.3637 43.669Z" fill="#FFCDBB" stroke="#20254A" stroke-width="2"/>
<path d="M63.0283 37.8376C64.4067 37.9436 65.7497 36.9187 66.0677 35.5757C66.2091 34.9395 66.1384 34.268 66.0324 33.6319C65.9617 33.0664 65.891 32.5009 65.8203 31.9708C65.7497 31.4407 65.679 30.9459 65.6436 30.4511C65.5729 29.815 65.4669 29.1435 65.0075 28.684C64.9015 28.578 64.7954 28.5073 64.6541 28.5073C64.548 28.472 64.4067 28.5073 64.3006 28.5427C62.6749 28.9668 61.2612 30.0624 60.4484 31.5114C59.7769 32.713 59.5295 34.162 59.9536 35.4697C60.413 36.742 61.65 37.8022 63.0283 37.8376Z" fill="#FFCDBB" stroke="#20254A" stroke-width="2"/>
<path d="M32.045 39.0402C32.045 34.2218 35.78 30.1836 40.37 30C40.685 30 41.045 30 41.36 30C41.36 30 41.54 30 41.585 30C46.22 30.1377 50 34.2218 50 39.086L49.955 50.9254V54H32L32.045 39.0402Z" fill="#FFCDBB"/>
<path d="M40.6635 76C36.0459 76 32.1759 72.4637 32 68.1178C32 67.8195 32 67.4787 32 67.1805C32 67.1805 32 67.01 32 66.9674C32.1759 62.5789 36.0459 59 40.7075 59L52.0535 59.0426H55V76H40.6635Z" fill="#FFCDBB"/>
<path d="M50.1657 58.3358L50.2011 53.4232L50.2717 39.8873C50.2364 35.1515 46.5255 31.0872 41.7544 30.8751C41.4009 30.8398 41.0475 30.8398 40.6941 30.8751C40.6234 30.8751 40.5881 30.8751 40.5174 30.8751C35.8169 31.0872 32.1414 35.0808 32.106 39.852L32.0707 53.3526L32 66.8885C32 66.9238 32 66.9945 32 67.0298" stroke="#20254A" stroke-width="2" stroke-miterlimit="10" stroke-linecap="round" stroke-linejoin="round"/>
<path d="M32.0723 53.3523L50.1673 53.423" stroke="#20254A" stroke-width="2" stroke-miterlimit="10" stroke-linecap="round" stroke-linejoin="round"/>
<path d="M77.0598 68.0899C76.8478 72.861 72.8188 76.5719 68.0123 76.5366L54.5117 76.5012V58.3708L68.083 58.4415C72.8188 58.4769 76.8478 62.1524 77.0598 66.8882C77.0598 66.9589 77.0598 66.9943 77.0598 67.0649C77.0598 67.383 77.0598 67.7364 77.0598 68.0899Z" stroke="#20254A" stroke-width="2" stroke-miterlimit="10" stroke-linecap="round" stroke-linejoin="round"/>
<path d="M54.5481 58.3708V76.5012L40.9768 76.4305C36.2057 76.3951 32.1767 72.7196 32 67.9484C32 67.6657 32 67.383 32 67.1002V67.0295C32 66.9942 32 66.9589 32 66.9235C32.1414 62.117 36.2057 58.3354 41.0475 58.3354L50.1657 58.3708H54.5481Z" stroke="#20254A" stroke-width="2" stroke-miterlimit="10" stroke-linecap="round" stroke-linejoin="round"/>
</svg>
