<svg width="111" height="104" viewBox="0 0 111 104" fill="none" xmlns="http://www.w3.org/2000/svg">
<path d="M42.3759 92.9366C14.5005 83.6404 5.86882 63.367 9.87477 33.4368C12.6001 13.0744 36.0816 5.72294 70.8759 10.4365C111.085 15.8836 107.875 49.9365 99.171 68.6765C90.467 87.4165 70.2512 102.233 42.3759 92.9366Z" fill="#FEEAE3"/>
<path d="M55.352 58.2035L55.704 58.5115L56.0348 58.1808C56.1842 58.0314 56.3689 57.7958 56.5308 57.5827C56.6089 57.4799 56.682 57.3821 56.7497 57.2914C56.8347 57.1776 56.9113 57.075 56.979 56.988L56.9863 56.9785L56.9932 56.9687C57.6699 56.0071 58.352 55.0713 59.3317 54.6825C59.6466 54.569 60.036 54.5064 60.4746 54.5064C61.1009 54.5064 61.7017 54.6463 62.364 54.8006C62.467 54.8245 62.5714 54.8489 62.6777 54.8731C63.1807 55.016 63.7256 55.1258 64.1067 55.1639L64.5658 55.2098L64.6483 54.7558C64.6918 54.5166 64.6998 54.2254 64.6998 53.9674C64.6998 53.8343 64.6976 53.701 64.6954 53.5781L64.6951 53.5613C64.693 53.4431 64.6911 53.3366 64.6911 53.2423C64.6911 53.2083 64.6911 53.1743 64.6911 53.1404C64.6907 51.9463 64.6902 50.8074 65.2671 49.942C65.8439 49.0768 66.8827 48.6417 67.9699 48.1863C67.9983 48.1744 68.0268 48.1624 68.0554 48.1505C68.438 48.0108 69.0712 47.7532 69.4355 47.5103L69.8192 47.2545L69.5952 46.8515C69.4033 46.5059 69.039 45.9979 68.7914 45.6793C68.0451 44.6841 67.3553 43.7285 67.2955 42.6213C67.236 41.5204 67.8625 40.4755 68.5062 39.4385L68.5063 39.4385L68.5101 39.4321C68.5423 39.3785 68.5791 39.3183 68.6187 39.2534C68.8121 38.937 69.074 38.5085 69.2056 38.1796L69.3765 37.7524L68.965 37.5466C68.5762 37.3523 67.9195 37.1351 67.5251 37.0271C66.3416 36.6684 65.2317 36.3207 64.5843 35.4967L64.5829 35.4949C63.8962 34.6291 63.7885 33.4707 63.7177 32.2681L63.7179 32.268L63.7169 32.2559C63.7121 32.1985 63.7071 32.1343 63.7018 32.0657C63.6889 31.8996 63.674 31.7078 63.6551 31.5252C63.6289 31.2714 63.5906 30.9871 63.5238 30.7644L63.4054 30.3695L62.9952 30.4105C62.7634 30.4337 62.5013 30.5101 62.2713 30.5839C62.1547 30.6213 62.0508 30.6564 61.951 30.6901C61.826 30.7323 61.7073 30.7724 61.578 30.8122L61.5779 30.8122L61.5726 30.8139C61.5175 30.8315 61.4627 30.8492 61.4081 30.8667C60.576 31.134 59.8083 31.3806 59.0505 31.3806C58.8015 31.3806 58.5035 31.3238 58.2374 31.2575C57.2392 30.9918 56.507 30.131 55.7156 29.1957L55.7157 29.1956L55.7076 29.1865C55.6741 29.1488 55.6369 29.1068 55.597 29.0616C55.3256 28.7544 54.9249 28.301 54.6558 28.0656L54.3266 27.7775L53.9973 28.0656C53.8112 28.2285 53.617 28.4795 53.4573 28.6997C53.3486 28.8494 53.2367 29.0125 53.1413 29.1515C53.0941 29.2202 53.051 29.2831 53.0143 29.3356C52.3377 30.297 51.6556 31.2327 50.6761 31.6214C50.3611 31.7348 49.9717 31.7974 49.5332 31.7974C48.9069 31.7974 48.3061 31.6575 47.6438 31.5033C47.5408 31.4793 47.4363 31.455 47.3301 31.4308C46.827 31.2879 46.2822 31.178 45.9011 31.1399L45.442 31.094L45.3594 31.548C45.3159 31.7872 45.3079 32.0785 45.3079 32.3365C45.3079 32.4696 45.3102 32.6029 45.3124 32.7258L45.3127 32.7428C45.3148 32.8609 45.3166 32.9673 45.3166 33.0616C45.3166 33.0956 45.3166 33.1296 45.3167 33.1635C45.3171 34.3575 45.3176 35.4965 44.7407 36.3619C44.1638 37.2271 43.1251 37.6622 42.0379 38.1176C42.0094 38.1295 41.9809 38.1414 41.9524 38.1534C41.5698 38.293 40.9366 38.5507 40.5723 38.7935L40.1886 39.0493L40.4125 39.4524C40.6045 39.7979 40.9687 40.3059 41.2164 40.6245C41.9627 41.6197 42.6524 42.5754 42.7123 43.6826C42.7718 44.7834 42.1452 45.8283 41.5016 46.8653L41.5015 46.8653L41.4976 46.8718C41.4655 46.9254 41.4287 46.9855 41.3891 47.0504C41.1957 47.3668 40.9338 47.7954 40.8022 48.1243L40.6386 48.5332L41.0236 48.7471C41.2267 48.8599 41.502 48.959 41.7541 49.0386C42.0101 49.1194 42.2761 49.1905 42.4878 49.2436C43.6693 49.6017 44.777 49.9496 45.4235 50.7724L45.4249 50.7742C46.1115 51.64 46.2193 52.7984 46.2901 54.0011L46.2899 54.0011L46.2909 54.0132C46.3259 54.4332 46.3972 55.0822 46.4726 55.4591L46.5615 55.9037L47.0126 55.8586C47.2444 55.8354 47.5064 55.759 47.7365 55.6852C47.853 55.6478 47.957 55.6127 48.0568 55.579C48.1818 55.5368 48.3005 55.4967 48.4298 55.4569L48.4298 55.4569L48.4352 55.4552C48.4903 55.4376 48.5451 55.42 48.5996 55.4024C49.4318 55.1351 50.1995 54.8885 50.9573 54.8885C51.2063 54.8885 51.5043 54.9453 51.7705 55.0117C52.7686 55.2773 53.5008 56.1381 54.2922 57.0734L54.2921 57.0735L54.3002 57.0826C54.3337 57.1203 54.3708 57.1623 54.4108 57.2075C54.6822 57.5147 55.0829 57.9681 55.352 58.2035ZM46.2466 43.4922L46.2464 43.4885C46.1152 41.161 46.9335 38.9289 48.5144 37.1833C50.0899 35.4437 52.2526 34.4268 54.5804 34.3257H54.5811H54.5819H54.5827H54.5835H54.5844H54.5852H54.586H54.5868H54.5876H54.5884H54.5892H54.5901H54.5909H54.5917H54.5925H54.5933H54.5941H54.5949H54.5958H54.5966H54.5974H54.5982H54.599H54.5998H54.6006H54.6015H54.6023H54.6031H54.6039H54.6047H54.6055H54.6063H54.6072H54.608H54.6088H54.6096H54.6104H54.6112H54.612H54.6129H54.6137H54.6145H54.6153H54.6161H54.6169H54.6177H54.6186H54.6194H54.6202H54.621H54.6218H54.6226H54.6234H54.6243H54.6251H54.6259H54.6267H54.6275H54.6283H54.6291H54.63H54.6308H54.6316H54.6324H54.6332H54.634H54.6348H54.6357H54.6365H54.6373H54.6381H54.6389H54.6397H54.6405H54.6413H54.6422H54.643H54.6438H54.6446H54.6454H54.6462H54.647H54.6479H54.6487H54.6495H54.6503H54.6511H54.6519H54.6527H54.6536H54.6544H54.6552H54.656H54.6568H54.6576H54.6584H54.6593H54.6601H54.6609H54.6617H54.6625H54.6633H54.6641H54.665H54.6658H54.6666H54.6674H54.6682H54.669H54.6698H54.6707H54.6715H54.6723H54.6731H54.6739H54.6747H54.6755H54.6764H54.6772H54.678H54.6788H54.6796H54.6804H54.6812H54.6821H54.6829H54.6837H54.6845H54.6853H54.6861H54.6869H54.6878H54.6886H54.6894H54.6902H54.691H54.6918H54.6926H54.6935H54.6943H54.6951H54.6959H54.6967H54.6975H54.6983H54.6992H54.7H54.7008H54.7016H54.7024H54.7032H54.704H54.7048H54.7057H54.7065H54.7073H54.7081H54.7089H54.7097H54.7105H54.7114H54.7122H54.713H54.7138H54.7146H54.7154H54.7162H54.7171H54.7179H54.7187H54.7195H54.7203H54.7211H54.7219H54.7228H54.7236H54.7244H54.7252H54.726H54.7268H54.7276H54.7285H54.7293H54.7301H54.7309H54.7317H54.7325H54.7333H54.7342H54.735H54.7358H54.7366H54.7374H54.7382H54.739H54.7399H54.7407H54.7415H54.7423H54.7431H54.7439H54.7447H54.7456H54.7464H54.7472H54.748H54.7488H54.7496H54.7504H54.7513H54.7521H54.7529H54.7537H54.7545H54.7553H54.7561H54.757H54.7578H54.7586H54.7594H54.7602H54.761H54.7618H54.7626H54.7635H54.7643H54.7651H54.7659H54.7667H54.7675H54.7683H54.7692H54.77H54.7708H54.7716H54.7724H54.7732H54.774H54.7749H54.7757H54.7765H54.7773H54.7781H54.7789H54.7797H54.7806H54.7814H54.7822H54.783H54.7838H54.7846H54.7854H54.7863H54.7871H54.7879H54.7887H54.7895H54.7903H54.7911H54.792H54.7928H54.7936H54.7944H54.7952H54.796H54.7968H54.7977H54.7985H54.7993H54.8001H54.8009H54.8017H54.8025H54.8034H54.8042H54.805H54.8058H54.8066H54.8074H54.8082H54.8091H54.8099H54.8107H54.8115H54.8123H54.8131H54.8139H54.8148H54.8156H54.8164H54.8172H54.818H54.8188H54.8196H54.8204H54.8213H54.8221H54.8229H54.8237H54.8245H54.8253H54.8261H54.827H54.8278H54.8286H54.8294H54.8302H54.831H54.8318H54.8327H54.8335H54.8343H54.8351H54.8359H54.8367H54.8375H54.8384H54.8392H54.84H54.8408H54.8416H54.8424H54.8432H54.8441H54.8449H54.8457H54.8465H54.8473H54.8481H54.8489H54.8498H54.8506H54.8514H54.8522H54.853H54.8538H54.8546H54.8555H54.8563H54.8571H54.8579H54.8587H54.8595H54.8603H54.8612H54.862H54.8628H54.8636H54.8644H54.8652H54.866H54.8669H54.8677H54.8685H54.8693H54.8701H54.8709H54.8717H54.8726H54.8734H54.8742H54.875H54.8758H54.8766H54.8774H54.8782H54.8791H54.8799H54.8807H54.8815H54.8823H54.8831H54.8839H54.8848H54.8856H54.8864H54.8872H54.888H54.8888H54.8896H54.8905H54.8913H54.8921H54.8929H54.8937H54.8945H54.8953H54.8962H54.897H54.8978H54.8986H54.8994H54.9002H54.901H54.9019H54.9027H54.9035H54.9043H54.9051H54.9059H54.9067H54.9076H54.9084H54.9092H54.91H54.9108H54.9116H54.9124H54.9133H54.9141H54.9149H54.9157H54.9165H54.9173H54.9181H54.919H54.9198H54.9206H54.9214H54.9222H54.923H54.9238H54.9247H54.9255H54.9263H54.9271H54.9279H54.9287H54.9295H54.9304H54.9312H54.932H54.9328H54.9336H54.9344H54.9352H54.936H54.9369H54.9377H54.9385H54.9393H54.9401H54.9409H54.9417H54.9426H54.9434H54.9442H54.945H54.9458H54.9466H54.9474H54.9483H54.9491H54.9499H54.9507H54.9515H54.9523H54.9531H54.954H54.9548H54.9556H54.9564H54.9572H54.958H54.9588H54.9597H54.9605H54.9613H54.9621H54.9629H54.9637H54.9645H54.9654H54.9662H54.967H54.9678H54.9686H54.9694H54.9702H54.9711H54.9719H54.9727H54.9735H54.9743H54.9751H54.9759H54.9768H54.9776H54.9784H54.9792H54.98H54.9808H54.9816H54.9825H54.9833H54.9841H54.9849H54.9857H54.9865C59.6833 34.3257 63.5308 38.0032 63.7959 42.7072C63.9909 47.534 60.2496 51.6379 55.426 51.8739H55.4259H55.425H55.4242H55.4234H55.4226H55.4218H55.421H55.4202H55.4193H55.4185H55.4177H55.4169H55.4161H55.4153H55.4145H55.4136H55.4128H55.412H55.4112H55.4104H55.4096H55.4088H55.4079H55.4071H55.4063H55.4055H55.4047H55.4039H55.4031H55.4023H55.4014H55.4006H55.3998H55.399H55.3982H55.3974H55.3966H55.3957H55.3949H55.3941H55.3933H55.3925H55.3917H55.3909H55.39H55.3892H55.3884H55.3876H55.3868H55.386H55.3852H55.3843H55.3835H55.3827H55.3819H55.3811H55.3803H55.3795H55.3786H55.3778H55.377H55.3762H55.3754H55.3746H55.3738H55.3729H55.3721H55.3713H55.3705H55.3697H55.3689H55.3681H55.3672H55.3664H55.3656H55.3648H55.364H55.3632H55.3624H55.3615H55.3607H55.3599H55.3591H55.3583H55.3575H55.3567H55.3558H55.355H55.3542H55.3534H55.3526H55.3518H55.351H55.3501H55.3493H55.3485H55.3477H55.3469H55.3461H55.3453H55.3444H55.3436H55.3428H55.342H55.3412H55.3404H55.3396H55.3388H55.3379H55.3371H55.3363H55.3355H55.3347H55.3339H55.3331H55.3322H55.3314H55.3306H55.3298H55.329H55.3282H55.3274H55.3265H55.3257H55.3249H55.3241H55.3233H55.3225H55.3217H55.3208H55.32H55.3192H55.3184H55.3176H55.3168H55.316H55.3151H55.3143H55.3135H55.3127H55.3119H55.3111H55.3103H55.3094H55.3086H55.3078H55.307H55.3062H55.3054H55.3046H55.3037H55.3029H55.3021H55.3013H55.3005H55.2997H55.2989H55.298H55.2972H55.2964H55.2956H55.2948H55.294H55.2932H55.2923H55.2915H55.2907H55.2899H55.2891H55.2883H55.2875H55.2866H55.2858H55.285H55.2842H55.2834H55.2826H55.2818H55.281H55.2801H55.2793H55.2785H55.2777H55.2769H55.2761H55.2753H55.2744H55.2736H55.2728H55.272H55.2712H55.2704H55.2696H55.2687H55.2679H55.2671H55.2663H55.2655H55.2647H55.2639H55.263H55.2622H55.2614H55.2606H55.2598H55.259H55.2582H55.2573H55.2565H55.2557H55.2549H55.2541H55.2533H55.2525H55.2516H55.2508H55.25H55.2492H55.2484H55.2476H55.2468H55.2459H55.2451H55.2443H55.2435H55.2427H55.2419H55.2411H55.2402H55.2394H55.2386H55.2378H55.237H55.2362H55.2354H55.2345H55.2337H55.2329H55.2321H55.2313H55.2305H55.2297H55.2288H55.228H55.2272H55.2264H55.2256H55.2248H55.224H55.2232H55.2223H55.2215H55.2207H55.2199H55.2191H55.2183H55.2175H55.2166H55.2158H55.215H55.2142H55.2134H55.2126H55.2118H55.2109H55.2101H55.2093H55.2085H55.2077H55.2069H55.2061H55.2052H55.2044H55.2036H55.2028H55.202H55.2012H55.2004H55.1995H55.1987H55.1979H55.1971H55.1963H55.1955H55.1947H55.1938H55.193H55.1922H55.1914H55.1906H55.1898H55.189H55.1881H55.1873H55.1865H55.1857H55.1849H55.1841H55.1833H55.1824H55.1816H55.1808H55.18H55.1792H55.1784H55.1776H55.1767H55.1759H55.1751H55.1743H55.1735H55.1727H55.1719H55.171H55.1702H55.1694H55.1686H55.1678H55.167H55.1662H55.1653H55.1645H55.1637H55.1629H55.1621H55.1613H55.1605H55.1597H55.1588H55.158H55.1572H55.1564H55.1556H55.1548H55.154H55.1531H55.1523H55.1515H55.1507H55.1499H55.1491H55.1483H55.1474H55.1466H55.1458H55.145H55.1442H55.1434H55.1426H55.1417H55.1409H55.1401H55.1393H55.1385H55.1377H55.1369H55.136H55.1352H55.1344H55.1336H55.1328H55.132H55.1312H55.1303H55.1295H55.1287H55.1279H55.1271H55.1263H55.1255H55.1246H55.1238H55.123H55.1222H55.1214H55.1206H55.1198H55.1189H55.1181H55.1173H55.1165H55.1157H55.1149H55.1141H55.1132H55.1124H55.1116H55.1108H55.11H55.1092H55.1084H55.1075H55.1067H55.1059H55.1051H55.1043H55.1035H55.1027H55.1019H55.101H55.1002H55.0994H55.0986H55.0978H55.097H55.0962H55.0953H55.0945H55.0937H55.0929H55.0921H55.0913H55.0905H55.0896H55.0888H55.088H55.0872H55.0864H55.0856H55.0848H55.0839H55.0831H55.0823H55.0815H55.0807H55.0799H55.0791H55.0782H55.0774H55.0766H55.0758H55.075H55.0742H55.0734H55.0725H55.0717H55.0709H55.0701H55.0693H55.0685H55.0677H55.0668H55.066H55.0652H55.0644H55.0636H55.0628H55.062H55.0611H55.0603H55.0595H55.0587H55.0579H55.0571H55.0563H55.0554H55.0546H55.0538H55.053H55.0522H55.0514H55.0506H55.0497H55.0489H55.0481H55.0473H55.0465H55.0457H55.0449H55.0441H55.0432H55.0424H55.0416H55.0408H55.04H55.0392H55.0384H55.0375H55.0367H55.0359H55.0351H55.0343H55.0335H55.0327H55.0318H55.031H55.0302H55.0294H55.0286H55.0278H55.027H55.0261H55.0253H55.0245H55.0237H55.0229H55.0221H55.0213C50.3225 51.8739 46.4768 48.1946 46.2466 43.4922Z" fill="#FFCDBB" stroke="#FFCDBB"/>
<path d="M68.5321 42.5091C68.4626 40.8766 71.033 38.7578 70.4772 37.299C69.9215 35.8054 66.5523 35.9096 65.5797 34.6939C64.6071 33.4782 65.406 30.2131 64.0861 29.3448C62.7662 28.4764 60.1264 30.5257 58.5633 30.0742C57.0698 29.6574 55.854 26.5313 54.2215 26.6007C52.589 26.6702 51.6512 29.9005 50.2271 30.4563C48.7335 31.012 45.8853 29.2406 44.6696 30.2131C43.4539 31.1857 44.5654 34.3813 43.697 35.7012C42.8286 36.9863 39.4594 37.1948 39.0426 38.7231C38.6258 40.2166 41.4045 42.0923 41.474 43.7248C41.5435 45.3573 38.9731 47.4761 39.5289 48.935C40.0846 50.4286 43.4539 50.3244 44.4264 51.5401C45.399 52.7558 44.6001 56.0208 45.92 56.8892C47.2399 57.7575 49.8797 55.7082 51.4428 56.1597C52.9364 56.5766 54.1521 59.7027 55.7846 59.6332C57.4171 59.5637 58.3549 56.3334 59.779 55.7777C61.2726 55.2219 64.1208 56.9934 65.3365 56.0208C66.5523 55.0482 65.4408 51.8527 66.3091 50.5328C67.1775 49.2129 70.512 49.0045 70.9635 47.4761C71.3456 46.0173 68.6016 44.1069 68.5321 42.5091ZM55.333 50.6717C51.1649 50.8454 47.6567 47.6498 47.4483 43.4817C47.2399 39.3136 50.4702 35.8054 54.6383 35.597C58.8065 35.4233 62.3147 38.6189 62.5231 42.787C62.7315 46.9204 59.5012 50.4633 55.333 50.6717Z" stroke="#20254A" stroke-width="2" stroke-miterlimit="10" stroke-linecap="round" stroke-linejoin="round"/>
<path d="M47.169 60.328L44.3555 73.6313L49.8088 69.4631L53.0738 75.4722L55.7484 59.6333" stroke="#20254A" stroke-width="2" stroke-miterlimit="10" stroke-linecap="round" stroke-linejoin="round"/>
<path d="M63.8779 59.5637L67.9071 72.5197L62.1064 68.9073L59.3624 75.1942L57.5215 68.4905" stroke="#20254A" stroke-width="2" stroke-miterlimit="10" stroke-linecap="round" stroke-linejoin="round"/>
</svg>
