<svg width="109" height="102" viewBox="0 0 109 102" fill="none" xmlns="http://www.w3.org/2000/svg">
<path d="M41.4316 90.9201C13.5563 81.6239 5.22802 65.1331 9.23397 35.2029C11.9593 14.8405 22.599 3.7043 57.3933 8.41784C97.6028 13.865 99.9627 45.9024 99.2961 64.676C98.6295 83.4495 69.307 100.216 41.4316 90.9201Z" fill="#DDF3FF"/>
<path d="M65.9288 39.0712C64.7035 37.8459 64.7035 35.8203 65.9288 34.5949L59.9771 28.6182C59.1519 27.793 57.8265 27.793 57.0013 28.6182L31.6189 53.9755C30.7937 54.8008 30.7937 56.1261 31.6189 56.9514L37.5957 62.9281C38.821 61.7027 40.8466 61.7027 42.0719 62.9281C43.2973 64.1535 43.2973 66.179 42.0719 67.4044L48.0487 73.3811C48.8739 74.2064 50.1993 74.2064 51.0245 73.3811L76.3819 48.0238C77.2071 47.1986 77.2071 45.8732 76.3819 45.0479L70.4051 39.0712C69.1798 40.2966 67.1792 40.2966 65.9288 39.0712Z" fill="#DDF3FF" stroke="#20254A" stroke-width="2" stroke-miterlimit="10" stroke-linecap="round" stroke-linejoin="round"/>
<path d="M39.8223 51.7498L53.2511 65.1786" stroke="#20254A" stroke-width="2" stroke-miterlimit="10" stroke-linecap="round" stroke-linejoin="round"/>
<path d="M51.3988 50.2996C52.8628 50.2996 54.0496 49.1128 54.0496 47.6488C54.0496 46.1848 52.8628 44.998 51.3988 44.998C49.9348 44.998 48.748 46.1848 48.748 47.6488C48.748 49.1128 49.9348 50.2996 51.3988 50.2996Z" stroke="#20254A" stroke-width="2" stroke-miterlimit="10"/>
<path d="M64.0785 49.5491C65.5425 49.5491 66.7293 48.3623 66.7293 46.8983C66.7293 45.4343 65.5425 44.2476 64.0785 44.2476C62.6145 44.2476 61.4277 45.4343 61.4277 46.8983C61.4277 48.3623 62.6145 49.5491 64.0785 49.5491Z" stroke="#20254A" stroke-width="2" stroke-miterlimit="10"/>
<path d="M59.2278 54.7257L56.252 39.7964" stroke="#20254A" stroke-width="2" stroke-miterlimit="10" stroke-linecap="round"/>
</svg>
