<svg width="110" height="105" viewBox="0 0 110 105" fill="none" xmlns="http://www.w3.org/2000/svg">
<path d="M42.4308 93.9247C14.5554 84.6285 -1.05434 66.2157 10.2331 38.2075C17.9998 18.9355 32.1816 1.56584 57.4998 8.93677C97 20.4365 108.296 44.1776 99.9994 66.9356C91.703 89.6935 70.3061 103.221 42.4308 93.9247Z" fill="#DDF3FF"/>
<path d="M48 63C48 63 50.7048 65 55 65C59.2952 65 62 63 62 63" stroke="#20254A" stroke-width="2" stroke-miterlimit="10" stroke-linecap="round" stroke-linejoin="round"/>
<path d="M36.1103 63.407H34.0115C32.28 63.407 30.8633 61.9903 30.8633 60.2588V51.8636C30.8633 50.132 32.28 48.7153 34.0115 48.7153H36.1103C37.8418 48.7153 39.2585 50.132 39.2585 51.8636V60.2588C39.2585 61.9903 37.8418 63.407 36.1103 63.407Z" fill="#DDF3FF" stroke="#20254A" stroke-width="2" stroke-miterlimit="10" stroke-linejoin="round"/>
<path d="M75.9873 63.407H73.8885C72.1569 63.407 70.7402 61.9903 70.7402 60.2588V51.8636C70.7402 50.132 72.1569 48.7153 73.8885 48.7153H75.9873C77.7188 48.7153 79.1355 50.132 79.1355 51.8636V60.2588C79.1355 61.9903 77.7188 63.407 75.9873 63.407Z" fill="#DDF3FF" stroke="#20254A" stroke-width="2" stroke-miterlimit="10" stroke-linejoin="round"/>
<path d="M57.0992 76.0001H52.9015C51.7472 76.0001 50.8027 75.0557 50.8027 73.9013C50.8027 72.747 51.7472 71.8025 52.9015 71.8025H57.0992C58.2535 71.8025 59.198 72.747 59.198 73.9013C59.198 75.0557 58.2535 76.0001 57.0992 76.0001Z" fill="#DDF3FF" stroke="#20254A" stroke-width="2" stroke-miterlimit="10" stroke-linejoin="round"/>
<path d="M59.1973 73.7965C63.4211 73.2193 69.77 71.0155 73.1544 63.3286" stroke="#20254A" stroke-width="2" stroke-miterlimit="10" stroke-linejoin="round"/>
<path d="M47.6535 55.0121C48.8126 55.0121 49.7523 54.0724 49.7523 52.9133C49.7523 51.7541 48.8126 50.8145 47.6535 50.8145C46.4944 50.8145 45.5547 51.7541 45.5547 52.9133C45.5547 54.0724 46.4944 55.0121 47.6535 55.0121Z" fill="#20254A"/>
<path d="M62.3469 55.0121C63.506 55.0121 64.4457 54.0724 64.4457 52.9133C64.4457 51.7541 63.506 50.8145 62.3469 50.8145C61.1877 50.8145 60.248 51.7541 60.248 52.9133C60.248 54.0724 61.1877 55.0121 62.3469 55.0121Z" fill="#20254A"/>
<path d="M65.8087 37.0671C65.5201 37.5656 64.8905 37.6967 64.392 37.4344C61.5061 35.8865 58.2792 35.0732 54.9998 35.0732C51.7466 35.0732 48.5722 35.8603 45.7126 37.3557C45.2141 37.618 44.5844 37.4606 44.2959 36.9884L42.6955 34.2862C42.3807 33.7877 42.5643 33.1056 43.089 32.817C46.7357 30.8493 50.8284 29.8262 54.9998 29.8262C59.2237 29.8262 63.3688 30.8756 67.068 32.8957C67.5927 33.1843 67.7501 33.8402 67.4353 34.3649L65.8087 37.0671Z" fill="#DDF3FF" stroke="#20254A" stroke-width="2" stroke-miterlimit="10" stroke-linecap="round" stroke-linejoin="round"/>
<path d="M75.3065 48.7156C74.0472 43.0488 71.0826 38.169 67.1211 34.8896" stroke="#20254A" stroke-width="2" stroke-miterlimit="10"/>
<path d="M42.9856 34.7847C38.9716 38.0903 35.9808 42.9963 34.6953 48.7155" stroke="#20254A" stroke-width="2" stroke-miterlimit="10"/>
</svg>
