<svg width="112" height="101" viewBox="0 0 112 101" fill="none" xmlns="http://www.w3.org/2000/svg">
<path d="M44.3051 90.1835C16.4297 80.8873 5.92374 60.1148 9.92969 30.1846C12.6551 9.82222 38.7111 -1.37158 71 12.4229C109.624 28.9239 108.634 52.4445 99.9296 71.1845C91.2256 89.9245 72.1805 99.4796 44.3051 90.1835Z" fill="#DDF3FF"/>
<path d="M65.968 47.2324H54.8086" stroke="#20254A" stroke-width="2" stroke-miterlimit="10" stroke-linecap="round" stroke-linejoin="round"/>
<path d="M44.5801 47.6974L46.254 49.0924L49.2298 45.3726" stroke="#20254A" stroke-width="2" stroke-miterlimit="10" stroke-linecap="round" stroke-linejoin="round"/>
<path d="M65.968 59.322H54.8086" stroke="#20254A" stroke-width="2" stroke-miterlimit="10" stroke-linecap="round" stroke-linejoin="round"/>
<path d="M44.5801 59.7868L46.254 61.1817L49.2298 57.4619" stroke="#20254A" stroke-width="2" stroke-miterlimit="10" stroke-linecap="round" stroke-linejoin="round"/>
<path d="M64.1085 35.1432H47.3694C46.8579 35.1432 46.4395 34.7247 46.4395 34.2132V30.4934C46.4395 29.982 46.8579 29.5635 47.3694 29.5635H64.1085C64.62 29.5635 65.0385 29.982 65.0385 30.4934V34.2132C65.0385 34.7247 64.62 35.1432 64.1085 35.1432Z" fill="#DDF3FF" stroke="#20254A" stroke-width="2" stroke-miterlimit="10" stroke-linecap="round" stroke-linejoin="round"/>
<path d="M65.0386 31.4233H70.6184C71.6413 31.4233 72.4783 32.2603 72.4783 33.2832V70.4813C72.4783 71.5043 71.6413 72.3412 70.6184 72.3412H40.8599C39.837 72.3412 39 71.5043 39 70.4813V33.2832C39 32.2603 39.837 31.4233 40.8599 31.4233H46.4396" stroke="#20254A" stroke-width="2" stroke-miterlimit="10" stroke-linecap="round" stroke-linejoin="round"/>
</svg>
